<svg width="512" height="156" viewBox="0 0 512 156" fill="none" xmlns="http://www.w3.org/2000/svg">
<path d="M66.4398 0C83.1061 0 97.6703 3.30508 110.132 9.91525C122.745 16.5254 132.429 25.7062 139.186 37.4576C145.942 49.209 149.321 62.5763 149.321 77.5593C149.321 92.3955 145.942 105.763 139.186 117.661C132.429 129.559 122.745 138.96 110.132 145.864C97.6703 152.621 83.1061 156 66.4398 156H10C4.47716 156 0 151.523 0 146V10C0 4.47716 4.47715 0 10 0H66.4398ZM61.9354 112.373C73.1964 112.373 82.1301 109.362 88.7366 103.339C95.343 97.3164 98.6462 88.7232 98.6462 77.5593C98.6462 66.3955 95.343 57.8023 88.7366 51.7797C82.1301 45.7571 73.1964 42.7458 61.9354 42.7458H59.9988C54.4759 42.7458 49.9988 47.2229 49.9988 52.7458V102.373C49.9988 107.896 54.4759 112.373 59.9988 112.373H61.9354Z" fill="#EBEDF0"/>
<path d="M349.037 0C354.56 0 359.037 4.47715 359.037 10V146C359.037 151.523 354.56 156 349.037 156H319.264C313.741 156 309.264 151.523 309.264 146V78.2203L286.921 149.01C285.608 153.171 281.748 156 277.385 156H249.253C244.89 156 241.03 153.171 239.717 149.01L217.374 78.2203V146C217.374 151.523 212.897 156 207.374 156H177.375C171.852 156 167.375 151.523 167.375 146V10C167.375 4.47716 171.852 0 177.375 0H221.706C225.874 0 229.605 2.58498 231.069 6.48721L263.769 93.6441L295.602 6.56653C297.044 2.62297 300.795 0 304.994 0H349.037Z" fill="#EBEDF0"/>
<path d="M512 53.5424C512 63.3842 509.673 72.3446 505.018 80.4237C500.364 88.3559 493.457 94.6723 484.298 99.3729C475.289 104.073 464.329 106.424 451.416 106.424H431.597V146C431.597 151.523 427.119 156 421.597 156H391.598C386.075 156 381.598 151.523 381.598 146V10C381.598 4.47716 386.075 0 391.598 0H451.416C470.935 0 485.875 4.84746 496.235 14.5424C506.745 24.2373 512 37.2373 512 53.5424ZM445.785 67.8644C456.146 67.8644 461.326 63.0904 461.326 53.5424C461.326 43.9943 456.146 39.2203 445.785 39.2203H441.597C436.074 39.2203 431.597 43.6975 431.597 49.2203V57.8644C431.597 63.3873 436.074 67.8644 441.597 67.8644H445.785Z" fill="#EBEDF0"/>
</svg>
